<?xml version="1.0" encoding="UTF-8" standalone="no"?>
<!-- Uploaded to: SVG Repo, www.svgrepo.com, Generator: SVG Repo Mixer Tools -->

<svg
   version="1.1"
   id="Icons"
   viewBox="0 0 32 32"
   xml:space="preserve"
   sodipodi:docname="in.fossfrog.hijacker.svg"
   inkscape:version="1.2.2 (b0a8486541, 2022-12-01)"
   xmlns:inkscape="http://www.inkscape.org/namespaces/inkscape"
   xmlns:sodipodi="http://sodipodi.sourceforge.net/DTD/sodipodi-0.dtd"
   xmlns="http://www.w3.org/2000/svg"
   xmlns:svg="http://www.w3.org/2000/svg"><sodipodi:namedview
   id="namedview15"
   pagecolor="#ffffff"
   bordercolor="#000000"
   borderopacity="0.25"
   inkscape:showpageshadow="2"
   inkscape:pageopacity="0.0"
   inkscape:pagecheckerboard="0"
   inkscape:deskcolor="#d1d1d1"
   showgrid="false"
   inkscape:zoom="25.84375"
   inkscape:cx="13.813785"
   inkscape:cy="16.019347"
   inkscape:window-width="1916"
   inkscape:window-height="1001"
   inkscape:window-x="0"
   inkscape:window-y="0"
   inkscape:window-maximized="1"
   inkscape:current-layer="Icons" /><defs
   id="defs15" />
<style
   type="text/css"
   id="style2">
	.st0{fill:none;stroke:#000000;stroke-width:2;stroke-linecap:round;stroke-linejoin:round;stroke-miterlimit:10;}
</style>
<g
   id="hacker"
   style="fill:#000000;stroke:#ffffff;stroke-opacity:1;stroke-width:2.16440706;stroke-dasharray:none;paint-order:normal;stroke-dashoffset:0;stroke-miterlimit:4"
   transform="matrix(0.04620203,0,0,0.04620203,7.88529,1.6257215)"><path
     d="m 475.3571,413.24 a 69.9,69.9 0 0 0 -39.8845,-57.4407 l -39.9287,-18.7987 21.5791,-44.5621 a 89.4527,89.4527 0 0 0 0.002,-77.9684 L 359.7988,96.0682 C 317.7933,9.3105 194.2088,9.31 152.2019,96.0666 L 94.87,214.4745 a 89.445,89.445 0 0 0 0.0049,77.9692 l 21.581,44.5569 L 76.5256,355.8 a 69.898,69.898 0 0 0 -39.8831,57.439 l -3.612,43.3773 a 22.5157,22.5157 0 0 0 22.4381,24.3842 H 456.5337 A 22.5134,22.5134 0 0 0 478.97,456.6187 Z M 364,260.1205 a 107.9746,107.9746 0 0 1 -98.1035,107.5 v -26.4956 a 9.8965,9.8965 0 0 0 -19.793,0 v 26.4957 A 107.9746,107.9746 0 0 1 148,260.1205 V 203.44 a 28.8192,28.8192 0 0 1 28.8193,-28.8193 H 335.1806 A 28.8193,28.8193 0 0 1 364,203.44 Z"
     id="path298"
     style="stroke:#ffffff;stroke-opacity:1;stroke-width:2.16440706;stroke-dasharray:none;paint-order:normal;stroke-dashoffset:0;stroke-miterlimit:4" /><path
     d="m 321.8213,275.9979 a 9.91,9.91 0 0 0 -12.3135,6.6709 13.5776,13.5776 0 0 1 -26.0156,0 9.9026054,9.9026054 0 1 0 -18.9844,5.6426 33.3877,33.3877 0 0 0 63.9844,0 9.9125,9.9125 0 0 0 -6.6709,-12.3135 z"
     id="path300"
     style="stroke:#ffffff;stroke-opacity:1;stroke-width:2.16440706;stroke-dasharray:none;paint-order:normal;stroke-dashoffset:0;stroke-miterlimit:4" /><path
     d="m 240.8213,275.9979 a 9.8908,9.8908 0 0 0 -12.3135,6.6709 13.5776,13.5776 0 0 1 -26.0156,0 9.9026054,9.9026054 0 1 0 -18.9844,5.6426 33.3877,33.3877 0 0 0 63.9844,0 9.9125,9.9125 0 0 0 -6.6709,-12.3135 z"
     id="path302"
     style="stroke:#ffffff;stroke-opacity:1;stroke-width:2.16440706;stroke-dasharray:none;paint-order:normal;stroke-dashoffset:0;stroke-miterlimit:4" /><path
     d="m 319,227.4384 h -36 a 9.8965,9.8965 0 1 0 0,19.7929 h 36 a 9.8965,9.8965 0 1 0 0,-19.7929 z"
     id="path304"
     style="stroke:#ffffff;stroke-opacity:1;stroke-width:2.16440706;stroke-dasharray:none;paint-order:normal;stroke-dashoffset:0;stroke-miterlimit:4" /><path
     d="m 193,247.2313 h 36 a 9.8965,9.8965 0 1 0 0,-19.7929 h -36 a 9.8965,9.8965 0 1 0 0,19.7929 z"
     id="path306"
     style="stroke:#ffffff;stroke-opacity:1;stroke-width:2.16440706;stroke-dasharray:none;paint-order:normal;stroke-dashoffset:0;stroke-miterlimit:4" /></g><path
   d="M 27,20 H 8 V 10 C 8,9.4 7.6,9 7,9 6.4,9 6,9.4 6,10 V 20 H 5 c -1.7,0 -3,1.3 -3,3 v 6 c 0,0.6 0.4,1 1,1 h 26 c 0.6,0 1,-0.4 1,-1 v -6 c 0,-1.7 -1.3,-3 -3,-3 z m -9,6 h -1 c -0.6,0 -1,-0.4 -1,-1 0,-0.6 0.4,-1 1,-1 h 1 c 0.6,0 1,0.4 1,1 0,0.6 -0.4,1 -1,1 z m 7,0 h -4 c -0.6,0 -1,-0.4 -1,-1 0,-0.6 0.4,-1 1,-1 h 4 c 0.6,0 1,0.4 1,1 0,0.6 -0.4,1 -1,1 z"
   id="path4"
   style="stroke:#ffffff;stroke-opacity:1;stroke-width:0.1;stroke-dasharray:none;paint-order:normal;stroke-dashoffset:0;stroke-miterlimit:4" />


<path
   d="m 9.0257354,12.181137 c 0.2,0.2 0.5,0.3 0.7,0.3 0.2,0 0.4999996,-0.1 0.6999996,-0.3 0.8,-0.8 1.3,-1.8 1.3,-2.9000003 0,-1.1 -0.5,-2.1 -1.3,-2.9 -0.4,-0.4 -0.9999996,-0.4 -1.3999996,0 -0.4,0.4 -0.4,1 0,1.4 0.5,0.4 0.7,0.9 0.7,1.5 0,0.6 -0.2,1.1000003 -0.6,1.5000003 -0.4,0.3 -0.5,1 -0.1,1.4 z"
   id="path10"
   style="display:inline;stroke:#ffffff;stroke-opacity:1;stroke-width:0.1;stroke-dasharray:none;paint-order:normal;stroke-dashoffset:0;stroke-miterlimit:4" /><path
   d="m 4.9104375,12.165382 c -0.2,0.2 -0.5,0.3 -0.7,0.3 -0.2000003,0 -0.4999995,-0.1 -0.6999995,-0.3 -0.8,-0.799999 -1.3,-1.799999 -1.3,-2.8999986 0,-1.1 0.5,-2.1 1.3,-2.9 0.3999991,-0.4 0.9999995,-0.4 1.3999995,0 0.4000001,0.4 0.4000001,1 0,1.4 -0.5,0.4 -0.7,0.9 -0.7,1.5 0,0.6000002 0.2,1.0999996 0.6,1.4999996 0.4,0.3 0.5000001,0.999999 0.1,1.399999 z"
   id="path10-3"
   style="display:inline;stroke:#ffffff;stroke-opacity:1;stroke-width:0.1;stroke-dasharray:none;paint-order:normal;stroke-dashoffset:0;stroke-miterlimit:4" />
<g
   style="fill:#000000;stroke:#ffffff;stroke-opacity:1;stroke-width:2.16440706;stroke-dasharray:none;paint-order:normal;stroke-dashoffset:0;stroke-miterlimit:4"
   id="g321"
   transform="matrix(0.04620203,0,0,0.04620203,7.88529,1.6257215)" /></svg>
